<svg width="720" height="520" viewBox="0 0 720 520" fill="none" xmlns="http://www.w3.org/2000/svg"><defs><linearGradient id="a" x1="0" y1="0" x2="720" y2="520"><stop stop-color="#FFF1F5"/><stop offset="1" stop-color="#DDF8FA"/></linearGradient></defs><rect width="720" height="520" rx="48" fill="url(#a)"/><circle cx="535" cy="126" r="80" fill="#00A9B7" opacity=".16"/><circle cx="161" cy="394" r="102" fill="#FF6F91" opacity=".15"/><path d="M165 352h390v48c0 38-31 69-69 69H234c-38 0-69-31-69-69v-48z" fill="#00A9B7"/><path d="M206 211c0-66 54-120 120-120h68c66 0 120 54 120 120v90H206v-90z" fill="#fff"/><circle cx="304" cy="214" r="20" fill="#263040"/><circle cx="416" cy="214" r="20" fill="#263040"/><path d="M334 259c16 15 37 15 52 0" stroke="#FF6F91" stroke-width="12" stroke-linecap="round"/><circle cx="236" cy="131" r="26" fill="#FF6F91" opacity=".55"/><circle cx="502" cy="171" r="26" fill="#00A9B7" opacity=".50"/><circle cx="464" cy="100" r="18" fill="#FFD166" opacity=".65"/><text x="52" y="72" font-family="Arial" font-size="28" font-weight="700" fill="#263040">Banho com carinho</text></svg>
