<svg width="720" height="520" viewBox="0 0 720 520" fill="none" xmlns="http://www.w3.org/2000/svg"><defs><linearGradient id="a" x1="39" y1="20" x2="720" y2="520"><stop stop-color="#E7FBFC"/><stop offset="1" stop-color="#FFF4C7"/></linearGradient></defs><rect width="720" height="520" rx="48" fill="url(#a)"/><rect x="86" y="118" width="548" height="285" rx="42" fill="white" opacity=".78"/><path d="M244 303c0-69 53-124 118-124s118 55 118 124v23c0 56-45 101-101 101h-34c-56 0-101-45-101-101v-23z" fill="#FFF6F1"/><path d="M258 216c-30-44-12-89 22-95 29-5 61 30 65 67" fill="#00A9B7" opacity=".75"/><path d="M466 216c30-44 12-89-22-95-29-5-61 30-65 67" fill="#FF6F91" opacity=".75"/><circle cx="323" cy="292" r="16" fill="#263040"/><circle cx="401" cy="292" r="16" fill="#263040"/><path d="M340 349c13 12 31 12 44 0" stroke="#00A9B7" stroke-width="10" stroke-linecap="round"/><path d="M542 150l42 42M584 150l-42 42" stroke="#FF6F91" stroke-width="13" stroke-linecap="round"/><text x="52" y="72" font-family="Arial" font-size="28" font-weight="700" fill="#263040">Tosa e acabamento</text></svg>
